<svg width="24" height="24" viewBox="0 0 24 24" fill="none" xmlns="http://www.w3.org/2000/svg">
<path d="M20.88 3.09908C20.1467 2.36574 19.2643 1.99941 18.233 2.00008H5.746C4.714 2.00008 3.83167 2.36641 3.099 3.09908C2.36567 3.83241 1.99933 4.71474 2 5.74608V18.2331C2 19.2651 2.36633 20.1474 3.099 20.8801C3.83233 21.6134 4.71467 21.9797 5.746 21.9791H8.66C8.85 21.9791 8.993 21.9724 9.089 21.9591C9.20081 21.937 9.30171 21.8774 9.375 21.7901C9.47033 21.6901 9.518 21.5451 9.518 21.3551L9.511 20.4701C9.507 19.9061 9.505 19.4594 9.505 19.1301L9.205 19.1821C9.015 19.2167 8.77467 19.2321 8.484 19.2281C8.1807 19.2223 7.87837 19.1918 7.58 19.1371C7.2621 19.0794 6.9629 18.9456 6.708 18.7471C6.44045 18.5448 6.24092 18.2657 6.136 17.9471L6.006 17.6471C5.89601 17.4107 5.75838 17.1881 5.596 16.9841C5.40933 16.7414 5.22067 16.5767 5.03 16.4901L4.94 16.4251C4.87751 16.3798 4.82046 16.3275 4.77 16.2691C4.7218 16.2148 4.68233 16.1534 4.653 16.0871C4.627 16.0257 4.64867 15.9757 4.718 15.9371C4.78733 15.8971 4.91333 15.8774 5.096 15.8781L5.356 15.9181C5.52933 15.9521 5.74367 16.0557 5.999 16.2291C6.25706 16.405 6.47263 16.6363 6.63 16.9061C6.83 17.2607 7.07067 17.5317 7.352 17.7191C7.634 17.9057 7.918 17.9991 8.204 17.9991C8.49 17.9991 8.73733 17.9774 8.946 17.9341C9.14809 17.8922 9.34447 17.8264 9.531 17.7381C9.609 17.1574 9.82133 16.7107 10.168 16.3981C9.71842 16.3536 9.27283 16.2754 8.835 16.1641C8.40775 16.0469 7.99687 15.8765 7.612 15.6571C7.20925 15.4378 6.85351 15.1415 6.565 14.7851C6.28767 14.4384 6.06 13.9834 5.882 13.4201C5.70467 12.8561 5.616 12.2054 5.616 11.4681C5.616 10.4194 5.95833 9.52608 6.643 8.78808C6.323 7.99941 6.35333 7.11541 6.734 6.13608C6.986 6.05741 7.359 6.11574 7.853 6.31108C8.347 6.50641 8.709 6.67308 8.939 6.81108C9.169 6.95108 9.35333 7.06841 9.492 7.16308C10.3049 6.93642 11.1451 6.82269 11.989 6.82508C12.8477 6.82508 13.6803 6.93774 14.487 7.16308L14.981 6.85108C15.361 6.62295 15.7618 6.43142 16.178 6.27908C16.6373 6.10574 16.9887 6.05808 17.232 6.13608C17.622 7.11608 17.6563 8.00041 17.335 8.78908C18.0203 9.52574 18.363 10.4191 18.363 11.4691C18.363 12.2064 18.274 12.8587 18.096 13.4261C17.9187 13.9941 17.689 14.4494 17.407 14.7921C17.1126 15.1431 16.7555 15.4364 16.354 15.6571C15.934 15.8911 15.5263 16.0601 15.131 16.1641C14.6932 16.2758 14.2476 16.3543 13.798 16.3991C14.248 16.7891 14.4733 17.4044 14.474 18.2451V21.3551C14.474 21.5017 14.4957 21.6207 14.539 21.7121C14.5592 21.7559 14.5881 21.7952 14.6238 21.8277C14.6595 21.8602 14.7014 21.8851 14.747 21.9011C14.8423 21.9357 14.927 21.9571 15.001 21.9651C15.075 21.9744 15.181 21.9787 15.319 21.9781H18.233C19.265 21.9781 20.1473 21.6117 20.88 20.8791C21.6127 20.1464 21.979 19.2641 21.979 18.2321V5.74608C21.979 4.71408 21.6133 3.83174 20.88 3.09908Z" fill="white"/>
</svg>
