<svg width="24" height="24" viewBox="0 0 24 24" fill="none" xmlns="http://www.w3.org/2000/svg">
<path fill-rule="evenodd" clip-rule="evenodd" d="M4.53599 5.778C5.47363 4.84064 6.74517 4.31407 8.07099 4.31407C9.39682 4.31407 10.6684 4.84064 11.606 5.778C11.7893 5.96067 12.0253 6.188 12.314 6.46C12.602 6.188 12.8377 5.96067 13.021 5.778C13.9547 4.84867 15.2174 4.32538 16.5348 4.32186C17.8522 4.31833 19.1177 4.83484 20.0564 5.75916C20.9951 6.68347 21.531 7.94089 21.5478 9.25815C21.5646 10.5754 21.0608 11.8461 20.146 12.794L13.02 19.92C12.8325 20.1075 12.5782 20.2128 12.313 20.2128C12.0478 20.2128 11.7935 20.1075 11.606 19.92L4.47999 12.795C3.56603 11.8524 3.0595 10.5881 3.06979 9.27523C3.08009 7.96233 3.60737 6.70616 4.53599 5.778Z" fill="#FF7676"/>
</svg>
