<svg width="22" height="22" viewBox="0 0 22 22" fill="none" xmlns="http://www.w3.org/2000/svg">
<path d="M18.9444 1.83333C19.5117 1.83333 20.0557 2.05868 20.4569 2.4598C20.858 2.86092 21.0833 3.40495 21.0833 3.97222V18.9444C21.0833 19.5117 20.858 20.0557 20.4569 20.4569C20.0557 20.858 19.5117 21.0833 18.9444 21.0833H3.97222C3.40495 21.0833 2.86091 20.858 2.45979 20.4569C2.05867 20.0557 1.83333 19.5117 1.83333 18.9444V3.97222C1.83333 3.40495 2.05867 2.86092 2.45979 2.4598C2.86091 2.05868 3.40495 1.83333 3.97222 1.83333H18.9444ZM18.4097 18.4097V12.7417C18.4097 11.817 18.0424 10.9302 17.3886 10.2764C16.7348 9.62259 15.848 9.25528 14.9233 9.25528C14.0143 9.25528 12.9556 9.81139 12.4422 10.6456V9.45847H9.45847V18.4097H12.4422V13.1374C12.4422 12.3139 13.1053 11.6401 13.9287 11.6401C14.3258 11.6401 14.7067 11.7979 14.9874 12.0787C15.2682 12.3594 15.426 12.7403 15.426 13.1374V18.4097H18.4097ZM5.98277 7.77944C6.45928 7.77944 6.91627 7.59015 7.25321 7.25321C7.59015 6.91627 7.77944 6.45928 7.77944 5.98278C7.77944 4.98819 6.97736 4.17542 5.98277 4.17542C5.50343 4.17542 5.04372 4.36583 4.70478 4.70478C4.36583 5.04373 4.17541 5.50343 4.17541 5.98278C4.17541 6.97736 4.98819 7.77944 5.98277 7.77944ZM7.4693 18.4097V9.45847H4.50694V18.4097H7.4693Z" fill="white"/>
</svg>
