<svg width="24" height="24" viewBox="0 0 24 24" fill="none" xmlns="http://www.w3.org/2000/svg">
<path d="M11.2 8.375L14.7 2.375C16.2167 2.775 17.5627 3.50833 18.738 4.575C19.9133 5.64167 20.7673 6.90833 21.3 8.375H11.2ZM8.42501 10.875L5.00001 4.875C5.90001 3.99167 6.94601 3.29167 8.13801 2.775C9.33001 2.25833 10.6173 2 12 2C12.2167 2 12.4667 2.01267 12.75 2.038C13.0333 2.06333 13.2917 2.09233 13.525 2.125L8.42501 10.875ZM2.32501 14.5C2.22501 14.1 2.14568 13.6917 2.08701 13.275C2.02834 12.8583 1.99934 12.4333 2.00001 12C2.00001 10.8167 2.19168 9.7 2.57501 8.65C2.95834 7.6 3.50001 6.64167 4.20001 5.775L9.25001 14.5H2.32501ZM9.32501 21.625C7.80834 21.225 6.45834 20.4917 5.27501 19.425C4.09168 18.3583 3.23334 17.0917 2.70001 15.625H12.775L9.32501 21.625ZM12 22C11.75 22 11.4957 21.9833 11.237 21.95C10.9783 21.9167 10.7327 21.8833 10.5 21.85L15.575 13.125L19 19.125C18.1 20.0083 17.0543 20.7083 15.863 21.225C14.6717 21.7417 13.384 22 12 22ZM19.8 18.225L14.75 9.5H21.675C21.775 9.9 21.8543 10.3083 21.913 10.725C21.9717 11.1417 22.0007 11.5667 22 12C22 13.1667 21.796 14.2833 21.388 15.35C20.98 16.4167 20.4507 17.375 19.8 18.225Z" fill="#71C8FF"/>
</svg>
